<?xml version="1.0" standalone="no"?>
<!DOCTYPE svg PUBLIC "-//W3C//DTD SVG 20010904//EN"
 "http://www.w3.org/TR/2001/REC-SVG-20010904/DTD/svg10.dtd">
<svg version="1.0" xmlns="http://www.w3.org/2000/svg"
 width="543.000000pt" height="543.000000pt" viewBox="0 0 543.000000 543.000000"
 preserveAspectRatio="xMidYMid meet">
<metadata>
Created by potrace 1.11, written by Peter Selinger 2001-2013
</metadata>
<g transform="translate(0.000000,543.000000) scale(0.100000,-0.100000)"
fill="#000000" stroke="none">
<path d="M641 5214 c-112 -29 -215 -130 -255 -248 -14 -45 -16 -244 -16 -2280
l1 -2231 24 -60 c34 -82 74 -134 136 -177 67 -46 115 -61 209 -63 168 -5 310
96 363 260 15 46 16 245 16 2270 0 2446 4 2277 -63 2379 -90 134 -251 192
-415 150z"/>
<path d="M1977 5219 c-87 -20 -171 -78 -220 -152 -72 -109 -67 85 -67 -2383
l0 -2223 21 -58 c41 -111 130 -199 234 -233 59 -19 168 -21 226 -4 122 37 217
131 253 253 14 50 16 261 16 2276 0 2031 -2 2226 -17 2271 -38 116 -128 208
-238 244 -48 16 -157 20 -208 9z"/>
<path d="M3285 5216 c-107 -30 -189 -101 -238 -204 l-32 -67 0 -2255 0 -2255
27 -57 c37 -80 71 -122 133 -163 93 -61 225 -79 333 -44 106 35 207 141 236
250 13 46 15 364 15 2279 1 2347 2 2244 -43 2330 -44 83 -121 149 -206 179
-48 17 -176 21 -225 7z"/>
<path d="M4602 5214 c-113 -29 -216 -128 -253 -244 -17 -51 -18 -119 -16 -960
l2 -905 31 -66 c69 -146 213 -230 369 -216 70 6 83 10 150 45 86 44 150 124
179 222 14 47 16 160 16 946 -1 804 -2 896 -17 935 -75 197 -260 294 -461 243z"/>
<path d="M4599 2545 c-98 -35 -164 -86 -214 -166 -56 -87 -55 -79 -55 -1032 0
-862 1 -880 21 -940 55 -165 209 -267 381 -253 35 3 74 9 88 13 96 31 190 117
230 210 l25 58 2 905 c3 1008 6 951 -66 1059 -40 60 -121 121 -185 142 -56 17
-183 20 -227 4z"/>
</g>
</svg>
